<?xml version="1.0" ?><svg data-name="Layer 1" id="Layer_1" viewBox="0 0 512 512" xmlns="http://www.w3.org/2000/svg"><defs><style>.cls-1{fill:#444b54;}</style></defs><title/><path class="cls-1" d="M256,280a8,8,0,1,0,8,8A8,8,0,0,0,256,280ZM56,232a8,8,0,1,0-8,8A8,8,0,0,0,56,232ZM48,64a8,8,0,1,0-8-8A8,8,0,0,0,48,64ZM464,224a8,8,0,1,0,8,8A8,8,0,0,0,464,224Zm0-160a8,8,0,1,0-8-8A8,8,0,0,0,464,64ZM440,376a8,8,0,1,0,8-8A8,8,0,0,0,440,376Zm-32-80a8,8,0,1,0,8-8A8,8,0,0,0,408,296ZM368,128a8,8,0,1,0-8-8A8,8,0,0,0,368,128Zm-224,0a8,8,0,1,0-8-8A8,8,0,0,0,144,128ZM64,384a8,8,0,1,0-8-8A8,8,0,0,0,64,384ZM236,168a8,8,0,1,0-8,8A8,8,0,0,0,236,168Zm20,232a8,8,0,1,0-8-8A8,8,0,0,0,256,400Zm0-88a8,8,0,1,0,8,8A8,8,0,0,0,256,312Zm36-144a8,8,0,1,0-8,8A8,8,0,0,0,292,168Zm-24,32a12,12,0,0,0-24,0c0,6.62,12,28,12,28S268,206.62,268,200ZM423.94,432a37.09,37.09,0,0,0-5.77.48,61.71,61.71,0,0,0-6-6.6,8,8,0,1,0-11,11.62,52.44,52.44,0,0,1,7.05,8.45,7.93,7.93,0,0,0,8.75,3.19,26.86,26.86,0,0,1,7-1.14,24,24,0,0,1,22.62,16H281a32.07,32.07,0,0,1,31-24,36.27,36.27,0,0,1,11.89,2.25,7.92,7.92,0,0,0,8.62-2.19,46.93,46.93,0,0,1,33.66-15.9,8,8,0,0,0,4.19-14.66,127.24,127.24,0,0,0-10.95-132.7,91.19,91.19,0,0,0,.59-10.39,104,104,0,0,0-2.11-21L411.31,192H440a8,8,0,0,0,0-16H427.31l18.35-18.34a8,8,0,1,0-11.32-11.32L416,164.68V152a8,8,0,0,0-16,0v28.68l-47.39,47.39c-.43-1.07-.87-2.13-1.33-3.18a8,8,0,1,0-14.66,6.44,86.26,86.26,0,0,1,7.32,35.08,75.08,75.08,0,0,1-.89,11.61,87.86,87.86,0,0,1-174.24-.19,74.54,74.54,0,0,1-.87-11.42,87.36,87.36,0,0,1,14.29-48,80,80,0,0,0,73.71,48.9c38.18,0,71.17-27.08,78.39-64.28a76.24,76.24,0,0,0,1.61-15.72A79.08,79.08,0,0,0,323,143.7,16,16,0,0,0,336,128V112a16,16,0,0,0-16-16V56a24,24,0,0,0-24-24H216a24,24,0,0,0-24,24V96a16,16,0,0,0-16,16v16a16,16,0,0,0,16,16H303a62.81,62.81,0,0,1,16.94,43.36,60.15,60.15,0,0,1-1.3,12.55,63.93,63.93,0,0,1-125.42-.08,61,61,0,0,1-1.28-12.47,63,63,0,0,1,2.42-17.2A8,8,0,0,0,179,165.84a78.71,78.71,0,0,0-3,21.52,76.41,76.41,0,0,0,.88,11.66,103.94,103.94,0,0,0-17.52,29L112,180.68V152a8,8,0,0,0-16,0v12.68L77.66,146.34a8,8,0,0,0-11.32,11.32L84.69,176H72a8,8,0,0,0,0,16h28.69l53.39,53.38a104.42,104.42,0,0,0-2.14,21,90.42,90.42,0,0,0,1,13.67c6.65,51.5,50.92,90.33,103,90.33a104.14,104.14,0,0,0,98.7-71.35,111.38,111.38,0,0,1-3.09,111.15,63,63,0,0,0-27.38,15.43C294.7,417.92,269,437.49,264.6,464H247.32A48.07,48.07,0,0,0,200,424a46.56,46.56,0,0,0-12.17,1.64,64.54,64.54,0,0,0-27.36-15.41,111.5,111.5,0,0,1-11-92.85,8,8,0,1,0-15.21-5A127.7,127.7,0,0,0,141,408.09a63.73,63.73,0,0,0-47.26,24.39C69.16,428.31,48,448,48,472a8,8,0,0,0,8,8H455.94a8,8,0,0,0,8-8A40,40,0,0,0,423.94,432ZM208,56a8,8,0,0,1,8-8h80a8,8,0,0,1,8,8V96H208Zm-16,72V112H320v16ZM65.38,464A24,24,0,0,1,88,448a23.61,23.61,0,0,1,6.84,1.14,8,8,0,0,0,9-3.28,47.63,47.63,0,0,1,75.77-5.74,8,8,0,0,0,8.83,2.13A32,32,0,0,1,231,464ZM104,296a8,8,0,1,0-8,8A8,8,0,0,0,104,296ZM256,432a8,8,0,1,0-8-8A8,8,0,0,0,256,432Z"/></svg>